<?xml version="1.0" encoding="utf-8"?>
<svg version="1.1" xmlns:xlink="http://www.w3.org/1999/xlink" width="32px" height="32px" xmlns="http://www.w3.org/2000/svg">
  <g>
    <path d="M 12.0256 19.976  C 13.1253333333333 21.0757333333333  14.4501333333333 21.6256  16 21.6256  C 17.5498666666667 21.6256  18.8746666666667 21.0757333333333  19.9744 19.976  C 21.0741333333333 18.8762666666667  21.624 17.5514666666667  21.624 16.0016  C 21.624 14.4517333333333  21.0741333333333 13.1269333333333  19.9744 12.0272  C 18.8746666666667 10.9274666666667  17.5498666666667 10.3776  16 10.3776  C 14.4501333333333 10.3776  13.1253333333333 10.9274666666667  12.0256 12.0272  C 10.9258666666667 13.1269333333333  10.376 14.4517333333333  10.376 16.0016  C 10.376 17.5514666666667  10.9258666666667 18.8762666666667  12.0256 19.976  Z M 28 16  C 28 16.6997333333333  27.9749333333333 17.2245333333333  27.9248 17.5744  L 31.2992 20.2  C 31.6490666666667 20.4496  31.6992 20.7994666666667  31.4496 21.2496  L 28.224 26.8  C 28.0234666666667 27.1498666666667  27.6986666666667 27.2501333333333  27.2496 27.1008  L 23.2752 25.5264  C 22.2256 26.2762666666667  21.3253333333333 26.8010666666667  20.5744 27.1008  L 19.9744 31.3008  C 19.8741333333333 31.7509333333333  19.624 31.976  19.224 31.976  L 12.7744 31.976  C 12.3744 31.976  12.1242666666667 31.7509333333333  12.024 31.3008  L 11.424 27.1008  C 10.4736 26.7008  9.57333333333333 26.176  8.7232 25.5264  L 4.7488 27.1008  C 4.29866666666666 27.2512  3.97386666666667 27.1509333333333  3.7744 26.8  L 0.548799999999999 21.2496  C 0.299199999999999 20.7994666666667  0.349333333333332 20.4496  0.699199999999998 20.2  L 4.0736 17.5744  C 4.02346666666667 17.2245333333333  3.9984 16.6997333333333  3.9984 16  C 3.9984 15.3002666666667  4.02346666666667 14.7754666666667  4.0736 14.4256  L 0.699199999999999 11.8  C 0.349333333333333 11.5504  0.2992 11.2005333333333  0.548799999999999 10.7504  L 3.7744 5.20000000000001  C 3.97493333333333 4.85013333333334  4.29973333333333 4.74986666666667  4.7488 4.89920000000001  L 8.7232 6.47360000000001  C 9.7728 5.72373333333334  10.6730666666667 5.19893333333334  11.424 4.89920000000001  L 12.024 0.699200000000006  C 12.1242666666667 0.249066666666673  12.3744 0.0240000000000059  12.7744 0.0240000000000059  L 19.224 0.0240000000000059  C 19.624 0.0240000000000059  19.8741333333333 0.249066666666673  19.9744 0.699200000000006  L 20.5744 4.89920000000001  C 21.5248 5.29920000000001  22.4250666666667 5.82400000000001  23.2752 6.47360000000001  L 27.2496 4.89920000000001  C 27.6997333333333 4.74880000000001  28.0245333333333 4.84906666666667  28.224 5.20000000000001  L 31.4496 10.7504  C 31.6992 11.2005333333333  31.6490666666667 11.5504  31.2992 11.8  L 27.9248 14.4256  C 27.9749333333333 14.7754666666667  28 15.3002666666667  28 16  Z " fill-rule="nonzero" fill="#d0021c" stroke="none" />
  </g>
</svg>