<?xml version="1.0" encoding="utf-8"?>
<svg version="1.1" xmlns:xlink="http://www.w3.org/1999/xlink" width="16px" height="16px" xmlns="http://www.w3.org/2000/svg">
  <g transform="matrix(1 0 0 1 -13 -7 )">
    <path d="M 15.7785 14.4455757575758  C 16.072 14.1609696969697  16.072 13.6998787878788  15.7815 13.4152727272727  L 12.666 10.3941818181818  C 12.5255 10.2579393939394  12.3345 10.1818181818182  12.1345 10.1818181818182  L 11.625 10.1818181818182  C 12.4875 9.11224242424243  13 7.76678787878788  13 6.3030303030303  C 13 2.82133333333334  10.0905 0  6.5 0  C 2.9095 0  0 2.82133333333334  0 6.3030303030303  C 0 9.78472727272728  2.9095 12.6060606060606  6.5 12.6060606060606  C 8.0095 12.6060606060606  9.397 12.1090909090909  10.5 11.2727272727273  L 10.5 11.7667878787879  C 10.5 11.9607272727273  10.578 12.1454545454545  10.719 12.2821818181818  L 13.8345 15.3032727272727  C 14.128 15.5878787878788  14.6035 15.5878787878788  14.894 15.3032727272727  L 15.7785 14.4455757575758  Z M 10.5 6.3030303030303  C 10.5 8.44557575757576  8.7125 10.1818181818182  6.5 10.1818181818182  C 4.2905 10.1818181818182  2.5 8.44848484848485  2.5 6.3030303030303  C 2.5 4.16048484848485  4.2875 2.42424242424242  6.5 2.42424242424242  C 8.7095 2.42424242424242  10.5 4.15757575757576  10.5 6.3030303030303  Z " fill-rule="nonzero" fill="#b1b9c7" stroke="none" transform="matrix(1 0 0 1 13 7 )" />
  </g>
</svg>