<?xml version="1.0" encoding="utf-8"?>
<svg version="1.1" xmlns:xlink="http://www.w3.org/1999/xlink" width="11px" height="16px" xmlns="http://www.w3.org/2000/svg">
  <g transform="matrix(1 0 0 1 -28 -53 )">
    <path d="M 2.5 8  C 2.5 9.657  3.843 11  5.5 11  C 7.157 11  8.5 9.657  8.5 8  L 8.5 3  C 8.5 1.343  7.157 0  5.5 0  C 3.843 0  2.5 1.343  2.5 3  L 2.5 8  Z M 10.5 6  L 10 6  C 9.724 6  9.5 6.2235  9.5 6.5  L 9.5 8  C 9.5 10.3375  7.4845 12.213  5.1005 11.9805  C 3.0225 11.7775  1.5 9.9095  1.5 7.8215  L 1.5 6.4995  C 1.5 6.223  1.2765 5.9995  1 5.9995  L 0.5 5.9995  C 0.224 5.9995  0 6.223  0 6.4995  L 0 7.7545  C 0 10.556  1.999 13.053  4.75 13.4325  L 4.75 14.4995  L 3 14.4995  C 2.7235 14.4995  2.5 14.7235  2.5 14.9995  L 2.5 15.4995  C 2.5 15.7755  2.7235 15.9995  3 15.9995  L 8 15.9995  C 8.276 15.9995  8.5 15.7755  8.5 15.4995  L 8.5 14.9995  C 8.5 14.7235  8.276 14.4995  8 14.4995  L 6.25 14.4995  L 6.25 13.444  C 8.9285 13.0765  11 10.7775  11 7.9995  L 11 6.4995  C 11 6.223  10.776 5.9995  10.5 5.9995  Z " fill-rule="nonzero" fill="#d0021c" stroke="none" transform="matrix(1 0 0 1 28 53 )" />
  </g>
</svg>